<svg id="svg" version="1.1" xmlns="http://www.w3.org/2000/svg" xmlns:xlink="http://www.w3.org/1999/xlink" width="400" height="291.4498141263941" viewBox="0, 0, 400,291.4498141263941"><g id="svgg"><path id="path0" d="M140.816 1.511 C 120.353 10.459,96.160 18.455,86.152 19.578 C 82.420 19.997,66.614 20.084,60.291 19.721 L 56.004 19.474 55.512 17.973 C 54.245 14.108,50.955 10.994,47.019 9.934 C 44.518 9.261,10.252 9.502,8.369 10.207 C 4.200 11.766,1.591 14.677,0.400 19.096 C -0.187 21.275,-0.181 103.813,0.407 106.020 C 1.367 109.626,3.879 112.701,7.201 114.336 L 9.171 115.306 28.128 115.306 L 47.085 115.306 49.041 114.324 C 50.856 113.413,52.728 111.710,54.665 109.205 L 55.248 108.452 57.557 109.465 C 58.828 110.022,60.271 110.859,60.764 111.324 C 68.523 118.633,80.072 123.938,103.455 130.935 C 119.210 135.648,123.354 137.132,129.738 140.345 C 136.940 143.969,148.263 151.127,155.315 156.513 C 157.133 157.902,159.108 159.280,159.704 159.575 C 161.917 160.673,165.307 164.932,167.189 168.980 C 168.968 172.806,169.599 173.899,171.052 175.663 C 176.718 182.542,184.541 182.824,191.646 176.405 L 192.790 175.371 193.261 176.092 C 212.290 205.245,256.024 196.264,261.944 161.988 C 263.422 153.427,261.240 143.310,256.315 135.896 C 254.836 133.669,254.830 133.916,256.397 132.378 C 260.680 128.175,260.050 120.946,254.205 107.216 C 249.984 97.304,240.677 80.044,231.683 65.452 C 226.878 57.657,227.530 59.535,224.638 45.126 C 220.802 26.012,220.404 24.930,215.682 20.798 C 212.615 18.115,213.211 18.316,189.641 11.992 C 160.311 4.121,160.091 4.059,156.255 2.531 C 149.114 -0.314,145.531 -0.551,140.816 1.511 M150.292 13.454 C 154.357 14.797,157.598 16.847,161.516 20.554 C 162.719 21.692,173.345 29.852,185.131 38.687 C 196.917 47.523,207.806 55.686,209.329 56.828 C 210.853 57.970,212.518 59.229,213.029 59.626 C 215.653 61.661,234.789 94.623,241.037 107.872 C 243.768 113.662,246.647 121.191,246.647 122.543 C 246.647 123.084,244.356 122.368,241.254 120.857 C 231.176 115.950,218.251 102.192,212.067 89.789 C 209.009 83.656,208.664 83.340,201.590 80.199 C 195.657 77.565,195.528 77.507,185.860 73.128 C 182.332 71.530,177.806 69.487,175.802 68.589 C 173.797 67.690,168.090 65.065,163.120 62.754 C 149.155 56.262,147.211 55.888,141.707 58.639 C 127.113 65.931,131.551 94.757,149.632 110.107 C 150.796 111.096,153.717 113.573,156.122 115.611 C 166.889 124.735,172.464 130.695,176.975 137.901 C 185.910 152.177,188.182 162.603,183.375 167.271 C 181.316 169.271,180.852 168.953,178.407 163.876 C 175.198 157.210,170.675 151.584,166.618 149.211 C 165.656 148.649,163.426 147.106,161.662 145.784 C 143.875 132.448,131.364 126.340,106.997 119.094 C 84.578 112.428,76.030 108.517,68.183 101.337 C 67.322 100.550,66.093 99.682,65.452 99.410 C 64.810 99.138,62.482 98.154,60.277 97.223 L 56.268 95.531 56.268 63.616 L 56.268 31.702 57.507 31.888 C 62.928 32.701,84.271 32.348,90.962 31.334 C 101.006 29.811,124.460 21.988,143.732 13.731 C 146.775 12.427,147.135 12.412,150.292 13.454 M41.558 27.915 C 41.500 31.243,41.373 42.230,41.277 52.332 C 41.180 62.434,41.038 72.208,40.962 74.052 C 40.885 75.897,40.803 83.032,40.778 89.909 L 40.734 102.414 41.431 102.802 C 42.017 103.128,39.776 103.179,27.332 103.125 L 12.536 103.061 12.533 62.682 C 12.532 40.474,12.532 22.205,12.534 22.085 C 12.535 21.964,19.090 21.866,27.100 21.866 L 41.663 21.866 41.558 27.915 M196.762 26.716 C 209.771 30.270,208.706 29.389,210.635 38.192 C 211.680 42.963,211.657 43.036,209.548 41.501 C 206.574 39.337,187.022 24.726,186.749 24.464 C 186.162 23.900,187.821 24.273,196.762 26.716 M150.146 70.414 C 150.867 70.776,153.950 72.215,156.997 73.612 C 169.333 79.269,173.438 81.159,175.802 82.270 C 178.275 83.432,193.948 90.364,197.813 92.006 L 199.854 92.873 201.895 96.948 C 205.114 103.375,210.070 110.139,216.545 116.941 C 219.085 119.609,219.060 119.379,216.868 119.810 C 207.617 121.630,197.861 128.603,193.052 136.833 L 191.901 138.802 191.328 137.841 C 191.013 137.313,190.318 136.093,189.784 135.131 C 184.039 124.793,176.085 116.071,160.641 103.178 C 154.520 98.067,151.770 94.848,149.069 89.631 C 145.010 81.791,143.963 72.445,146.875 70.047 C 147.746 69.331,148.059 69.366,150.146 70.414 M231.341 132.038 C 249.936 136.854,256.311 160.318,242.717 173.912 C 229.487 187.142,206.900 181.700,201.189 163.906 C 195.184 145.196,212.299 127.107,231.341 132.038 M223.907 137.815 C 222.978 138.155,222.139 139.226,221.969 140.289 C 221.866 140.932,221.628 141.399,221.402 141.399 C 220.160 141.399,217.537 142.775,216.168 144.144 C 211.553 148.759,213.727 156.081,220.429 158.490 L 221.866 159.007 221.866 161.899 L 221.866 164.790 221.064 164.282 C 219.764 163.457,218.726 162.382,218.347 161.468 C 217.354 159.070,213.868 159.297,212.820 161.828 C 211.766 164.371,215.908 169.205,220.427 170.706 C 221.502 171.063,221.866 171.329,221.866 171.758 C 221.866 172.580,222.629 173.941,223.387 174.472 C 225.185 175.732,227.988 174.232,227.988 172.009 C 227.988 171.599,228.317 171.362,229.226 171.118 C 238.874 168.520,239.118 158.048,229.607 154.819 L 228.134 154.319 228.052 151.066 C 227.980 148.245,228.031 147.813,228.436 147.813 C 229.197 147.813,230.900 149.288,231.502 150.467 C 232.626 152.670,234.893 153.199,236.466 151.626 C 239.081 149.010,235.475 143.625,229.835 141.725 C 228.688 141.338,228.105 140.978,228.045 140.620 C 227.658 138.313,225.866 137.099,223.907 137.815 M221.866 149.854 C 221.866 152.391,221.683 152.614,220.541 151.471 C 219.521 150.452,219.591 149.228,220.722 148.277 C 221.916 147.272,221.866 147.202,221.866 149.854 M229.379 161.385 C 230.891 162.444,230.803 163.725,229.160 164.574 C 227.962 165.194,227.988 165.230,227.988 162.974 C 227.988 160.779,228.188 160.551,229.379 161.385 M354.227 175.250 C 350.593 175.863,346.892 178.657,345.221 182.050 C 344.147 184.232,344.537 184.121,337.620 184.217 C 331.772 184.299,329.176 183.945,325.847 182.612 C 307.977 175.456,290.386 176.989,276.385 186.922 C 267.131 193.488,260.928 196.907,252.936 199.848 C 241.031 204.230,238.300 204.870,229.952 205.238 C 210.836 206.082,197.729 210.461,192.394 217.786 C 191.695 218.747,190.977 219.534,190.800 219.534 C 190.516 219.534,179.857 216.553,156.545 209.955 C 140.121 205.306,130.658 205.642,122.456 211.166 C 117.889 214.241,115.882 217.471,115.900 221.715 C 115.933 229.331,118.383 230.986,161.526 252.532 C 197.436 270.466,216.545 279.780,228.126 284.997 C 230.375 286.010,233.022 287.234,234.007 287.717 C 247.495 294.330,262.696 292.216,275.321 281.972 C 278.217 279.622,283.922 275.351,286.880 273.318 C 288.243 272.382,290.178 271.049,291.179 270.356 C 306.026 260.086,324.260 253.487,339.533 252.857 L 343.644 252.687 343.804 255.717 C 344.182 262.873,348.021 267.451,354.519 268.496 C 357.044 268.902,386.669 268.904,389.213 268.498 C 392.973 267.899,396.335 265.699,398.167 262.642 C 400.102 259.413,400.019 261.345,399.933 221.254 L 399.854 184.985 399.209 183.277 C 397.888 179.778,394.766 176.808,391.129 175.590 C 389.432 175.021,357.341 174.726,354.227 175.250 M387.755 221.710 C 387.755 254.869,387.738 255.965,387.210 256.248 C 386.867 256.432,381.024 256.545,371.466 256.555 L 356.268 256.569 356.268 222.016 L 356.268 187.464 372.012 187.464 L 387.755 187.464 387.755 221.710 M312.828 191.525 C 316.093 192.240,320.428 193.624,322.901 194.741 C 325.676 195.994,328.712 196.350,336.661 196.353 L 343.731 196.356 343.731 218.397 L 343.732 240.439 338.994 240.607 C 316.037 241.425,295.017 250.768,267.539 272.367 C 259.033 279.054,249.638 280.866,241.401 277.407 C 235.631 274.984,224.848 269.972,214.431 264.872 C 210.262 262.830,205.474 260.504,203.790 259.702 C 194.681 255.366,141.770 228.846,138.047 226.750 C 133.704 224.307,129.446 221.687,129.446 221.459 C 129.446 221.133,131.774 220.033,133.211 219.681 C 139.695 218.091,141.740 218.478,170.664 226.754 L 187.830 231.666 188.461 233.836 C 192.174 246.601,203.806 251.554,224.490 249.178 C 226.655 248.929,230.394 248.581,232.799 248.404 C 259.244 246.458,275.793 243.750,289.796 239.075 C 302.788 234.738,305.731 232.880,306.029 228.825 C 306.392 223.868,301.959 220.957,297.159 223.000 C 284.825 228.248,276.580 230.649,264.063 232.636 C 258.182 233.570,239.235 235.575,229.446 236.299 C 226.159 236.542,221.961 236.951,220.117 237.208 C 210.595 238.533,203.354 236.567,200.945 232.002 L 200.371 230.914 201.159 228.252 C 202.200 224.739,202.895 223.921,206.207 222.312 C 211.652 219.668,220.868 217.943,231.924 217.498 C 247.754 216.862,268.499 208.445,284.984 195.971 C 291.174 191.287,303.066 189.388,312.828 191.525 " stroke="none" fill="#fff" fillRule="evenodd"></path><path id="path1" d="M0.021 9.548 C 0.038 17.767,0.094 18.952,0.423 18.060 C 1.931 13.965,4.399 11.414,8.309 9.908 L 10.058 9.234 27.259 9.193 C 36.720 9.171,45.117 9.255,45.918 9.380 C 50.456 10.087,54.425 13.732,56.068 18.701 C 56.414 19.748,79.745 20.085,86.880 19.146 C 95.535 18.007,110.824 13.256,129.423 5.927 C 133.636 4.267,143.253 0.274,143.416 0.117 C 143.483 0.053,111.241 -0.000,71.769 -0.000 L 0.000 0.000 0.021 9.548 M150.407 0.451 C 152.683 0.945,155.582 1.874,157.726 2.797 C 158.608 3.176,162.741 4.407,166.910 5.532 C 171.079 6.657,176.130 8.029,178.134 8.580 C 185.993 10.741,198.126 14.047,204.373 15.730 C 212.238 17.849,213.989 18.654,216.768 21.428 C 220.889 25.541,221.000 25.892,226.226 51.256 L 227.686 58.343 231.430 64.522 C 257.082 106.848,263.896 125.316,256.566 132.647 L 255.347 133.866 256.559 135.665 C 266.155 149.901,264.291 169.653,252.154 182.348 C 235.719 199.540,207.027 197.106,193.881 177.405 C 193.346 176.603,192.870 175.899,192.823 175.839 C 192.776 175.780,191.987 176.401,191.069 177.219 C 182.421 184.927,172.850 181.883,167.098 169.597 C 164.856 164.807,161.510 160.340,159.854 159.924 C 159.419 159.815,158.270 159.106,157.301 158.349 C 139.762 144.650,126.205 137.798,103.644 131.231 C 81.218 124.704,70.699 120.002,61.731 112.499 C 60.265 111.273,58.710 110.289,57.313 109.706 L 55.157 108.807 54.036 110.434 C 52.596 112.525,50.034 114.408,47.609 115.157 C 44.698 116.057,11.593 116.065,8.704 115.168 C 4.780 113.948,1.951 111.165,0.427 107.024 C 0.105 106.151,0.038 121.446,0.021 198.761 L 0.000 291.545 122.959 291.526 L 245.918 291.507 242.711 290.831 C 237.262 289.683,230.256 286.649,208.057 275.829 C 203.749 273.730,200.167 272.012,200.098 272.012 C 200.029 272.012,185.646 264.874,168.135 256.151 C 123.953 234.141,119.009 231.251,116.505 225.967 C 111.713 215.854,124.083 205.772,140.379 206.507 C 146.774 206.796,146.891 206.824,172.881 214.272 C 192.899 220.009,190.796 219.650,192.274 217.586 C 197.902 209.728,210.794 205.700,233.090 204.831 C 237.435 204.662,239.500 204.180,247.547 201.458 C 259.673 197.356,265.575 194.306,276.509 186.488 C 290.748 176.309,307.018 175.215,327.988 183.026 C 330.004 183.777,335.476 184.125,340.619 183.828 L 344.289 183.616 344.606 182.654 C 345.570 179.733,349.109 176.514,352.481 175.489 C 354.327 174.929,355.105 174.909,372.616 174.989 L 390.830 175.073 392.847 176.067 C 396.135 177.685,397.879 179.571,399.314 183.059 L 399.986 184.694 399.993 92.347 L 400.000 0.000 274.271 0.023 C 166.308 0.043,148.806 0.104,150.407 0.451 M143.732 14.026 C 124.137 22.383,101.444 29.945,90.950 31.613 C 84.593 32.624,62.164 32.999,57.506 32.172 L 56.557 32.003 56.631 63.714 L 56.706 95.425 59.767 96.708 C 66.337 99.462,66.848 99.734,68.784 101.510 C 75.905 108.043,86.034 112.667,106.115 118.549 C 131.614 126.019,143.675 131.919,162.682 146.222 C 164.206 147.369,165.911 148.540,166.472 148.826 C 170.403 150.827,174.929 156.347,178.473 163.465 C 179.446 165.418,180.555 167.311,180.937 167.670 L 181.633 168.323 182.726 167.439 C 188.066 163.121,185.459 151.334,175.966 136.880 C 171.310 129.793,165.583 123.887,153.642 113.859 C 150.353 111.098,146.900 107.998,145.969 106.970 C 128.650 87.859,128.082 61.530,144.898 57.260 C 149.400 56.117,149.564 56.174,172.595 66.820 C 175.474 68.150,188.576 74.063,198.631 78.570 C 209.336 83.367,209.189 83.248,212.395 89.741 C 219.092 103.307,233.295 117.749,243.842 121.718 C 246.512 122.722,246.481 122.784,245.219 118.950 C 241.536 107.767,230.538 87.214,215.291 63.022 C 213.617 60.367,213.458 60.214,208.792 56.754 C 206.161 54.803,200.889 50.845,197.076 47.959 C 193.263 45.073,187.212 40.529,183.629 37.862 C 180.046 35.195,175.736 31.969,174.052 30.692 C 172.369 29.416,169.144 26.991,166.886 25.305 C 164.629 23.618,161.930 21.399,160.888 20.373 C 157.519 17.053,152.946 14.343,148.834 13.230 C 146.849 12.692,146.866 12.690,143.732 14.026 M12.536 62.536 L 12.536 102.915 26.895 102.907 C 37.140 102.900,41.102 102.809,40.723 102.589 C 40.270 102.326,40.216 102.017,40.351 100.484 C 40.439 99.496,40.579 91.931,40.662 83.673 C 40.971 53.164,41.115 41.024,41.280 31.706 L 41.448 22.157 26.992 22.157 L 12.536 22.157 12.536 62.536 M187.609 24.732 C 188.185 25.341,210.930 42.229,211.034 42.125 C 211.092 42.066,210.724 40.037,210.215 37.616 C 208.563 29.751,209.276 30.344,197.761 27.269 C 192.819 25.950,188.448 24.770,188.047 24.647 C 187.539 24.492,187.406 24.518,187.609 24.732 M146.976 70.290 C 144.246 72.833,145.371 82.072,149.315 89.504 C 152.150 94.846,154.947 98.091,161.224 103.317 C 176.685 116.189,184.191 124.535,190.623 136.006 L 191.887 138.261 192.890 136.595 C 197.980 128.146,207.404 121.459,217.128 119.397 C 218.372 119.133,218.406 119.210,215.917 116.651 C 210.282 110.859,203.837 101.925,201.044 96.032 L 199.647 93.085 198.001 92.412 C 196.497 91.796,181.698 85.238,174.344 81.927 C 171.164 80.495,157.126 73.975,151.348 71.246 C 147.518 69.437,147.821 69.503,146.976 70.290 M221.137 131.695 C 207.103 133.625,197.198 149.100,201.152 162.922 C 206.854 182.852,232.985 187.483,245.044 170.700 C 257.844 152.883,243.013 128.686,221.137 131.695 M227.323 138.269 C 227.721 138.667,228.134 139.419,228.240 139.939 C 228.408 140.761,228.642 140.962,230.033 141.479 C 236.291 143.804,239.598 149.691,236.165 152.396 C 234.786 153.483,231.195 152.175,231.195 150.586 C 231.195 150.165,229.017 148.105,228.571 148.105 C 227.995 148.105,228.207 153.930,228.790 154.124 C 239.021 157.540,239.686 167.868,229.888 171.185 C 228.643 171.606,228.401 171.812,228.243 172.586 C 227.534 176.052,222.080 175.870,221.814 172.373 C 221.753 171.579,221.582 171.381,220.711 171.099 C 214.039 168.942,209.886 162.037,213.985 159.917 C 215.781 158.989,217.998 159.775,218.766 161.614 C 219.128 162.481,220.847 164.140,221.383 164.140 C 222.116 164.140,221.538 159.156,220.773 158.873 C 215.802 157.038,213.564 154.238,213.564 149.854 C 213.564 145.337,215.658 142.991,221.501 140.961 C 221.702 140.892,221.871 140.535,221.876 140.169 C 221.916 137.620,225.443 136.389,227.323 138.269 M220.599 148.638 C 219.903 149.407,220.006 150.523,220.845 151.312 L 221.574 151.997 221.574 150.051 C 221.574 148.012,221.397 147.756,220.599 148.638 M228.280 162.828 C 228.280 164.643,228.641 164.870,229.712 163.730 C 230.446 162.949,230.235 162.094,229.167 161.523 C 228.312 161.065,228.280 161.113,228.280 162.828 M356.272 221.866 L 356.282 255.977 371.873 255.977 L 387.464 255.977 387.464 221.866 L 387.464 187.755 371.863 187.755 L 356.261 187.755 356.272 221.866 M296.356 191.545 C 291.327 192.540,288.493 193.879,282.493 198.091 C 265.862 209.769,245.369 217.781,232.122 217.785 C 220.547 217.789,207.477 220.785,203.547 224.335 C 202.379 225.390,200.875 229.046,200.875 230.829 C 200.875 235.425,209.713 238.210,220.129 236.896 C 223.541 236.466,224.606 236.368,231.487 235.850 C 239.017 235.284,257.291 233.431,261.808 232.776 C 272.931 231.163,284.751 227.957,293.440 224.194 C 298.754 221.894,299.094 221.791,300.702 222.002 C 305.043 222.572,307.661 227.163,305.861 231.050 C 303.425 236.312,279.523 243.854,257.872 246.191 C 249.505 247.095,239.339 248.097,234.111 248.535 C 227.233 249.111,223.267 249.491,219.971 249.891 C 203.937 251.835,190.684 244.981,187.982 233.346 L 187.635 231.852 183.686 230.756 C 181.514 230.153,172.391 227.563,163.411 225.000 C 140.662 218.507,136.558 217.973,131.028 220.783 L 129.630 221.493 133.110 223.552 C 139.882 227.558,144.444 229.919,170.117 242.706 C 202.659 258.914,208.321 261.692,224.052 269.166 C 242.970 278.155,244.542 278.722,250.498 278.712 C 257.548 278.700,261.006 277.191,269.716 270.323 C 294.708 250.618,316.026 241.425,339.869 240.070 L 343.440 239.867 343.440 218.367 L 343.440 196.867 335.933 196.711 C 327.655 196.539,325.419 196.267,323.032 195.143 C 315.305 191.502,304.167 190.000,296.356 191.545 M334.985 253.527 C 314.861 256.192,298.661 263.869,276.991 281.008 C 269.110 287.242,264.761 289.504,257.872 290.953 C 255.270 291.499,255.867 291.504,327.624 291.525 L 400.000 291.545 399.979 275.292 C 399.957 259.101,399.955 259.044,399.417 260.558 C 397.929 264.742,394.115 267.958,389.669 268.777 C 387.303 269.213,356.428 269.213,354.062 268.777 C 347.842 267.631,343.931 262.854,343.523 255.904 L 343.355 253.061 340.701 253.091 C 339.241 253.108,336.669 253.304,334.985 253.527 " stroke="none" fill="#8169ae" fillRule="evenodd"></path><path id="path2" d="M20.773 9.247 C 21.214 9.314,21.935 9.314,22.376 9.247 C 22.817 9.180,22.456 9.125,21.574 9.125 C 20.692 9.125,20.332 9.180,20.773 9.247 M35.641 9.247 C 36.082 9.314,36.804 9.314,37.245 9.247 C 37.686 9.180,37.325 9.125,36.443 9.125 C 35.561 9.125,35.200 9.180,35.641 9.247 M58.094 19.451 C 58.538 19.518,59.194 19.516,59.552 19.447 C 59.911 19.378,59.548 19.323,58.746 19.325 C 57.945 19.328,57.651 19.384,58.094 19.451 M84.913 19.443 C 85.193 19.516,85.652 19.516,85.933 19.443 C 86.214 19.370,85.984 19.310,85.423 19.310 C 84.862 19.310,84.632 19.370,84.913 19.443 M63.930 19.748 C 64.697 19.808,65.877 19.808,66.554 19.747 C 67.231 19.685,66.603 19.636,65.160 19.637 C 63.717 19.638,63.164 19.688,63.930 19.748 M79.804 19.744 C 80.322 19.808,81.240 19.809,81.845 19.746 C 82.450 19.683,82.026 19.630,80.904 19.629 C 79.781 19.628,79.286 19.680,79.804 19.744 M216.606 21.356 C 217.321 22.117,217.944 22.741,217.991 22.741 C 218.210 22.741,217.978 22.479,216.691 21.271 L 215.306 19.971 216.606 21.356 M19.772 22.084 C 23.832 22.130,30.392 22.130,34.350 22.084 C 38.307 22.038,34.985 22.001,26.968 22.001 C 18.950 22.001,15.712 22.039,19.772 22.084 M41.226 35.131 C 41.226 37.697,41.271 38.707,41.325 37.377 C 41.379 36.046,41.379 33.947,41.324 32.712 C 41.270 31.477,41.226 32.566,41.226 35.131 M56.338 63.613 C 56.299 81.041,56.367 95.362,56.487 95.436 C 56.685 95.558,56.683 73.203,56.483 43.294 C 56.441 37.041,56.376 46.184,56.338 63.613 M58.819 32.281 C 59.340 32.346,60.193 32.346,60.714 32.281 C 61.235 32.216,60.809 32.163,59.767 32.163 C 58.724 32.163,58.298 32.216,58.819 32.281 M84.184 32.276 C 84.544 32.345,85.135 32.345,85.496 32.276 C 85.856 32.206,85.561 32.149,84.840 32.149 C 84.118 32.149,83.823 32.206,84.184 32.276 M68.440 32.580 C 70.886 32.628,74.887 32.628,77.332 32.580 C 79.778 32.531,77.777 32.491,72.886 32.491 C 67.996 32.491,65.995 32.531,68.440 32.580 M177.259 33.051 C 177.259 33.131,177.653 33.477,178.134 33.819 C 178.615 34.162,179.009 34.376,179.009 34.296 C 179.009 34.216,178.615 33.870,178.134 33.528 C 177.653 33.185,177.259 32.970,177.259 33.051 M40.934 61.224 C 40.934 63.710,40.978 64.727,41.033 63.484 C 41.088 62.241,41.088 60.208,41.033 58.965 C 40.978 57.722,40.934 58.739,40.934 61.224 M146.866 57.062 C 147.387 57.127,148.240 57.127,148.761 57.062 C 149.282 56.998,148.856 56.945,147.813 56.945 C 146.771 56.945,146.345 56.998,146.866 57.062 M137.453 61.589 L 136.006 63.120 137.536 61.673 C 138.378 60.877,139.067 60.188,139.067 60.142 C 139.067 59.925,138.797 60.167,137.453 61.589 M132.760 75.948 C 132.760 77.551,132.809 78.170,132.868 77.323 C 132.927 76.475,132.927 75.163,132.867 74.407 C 132.807 73.651,132.759 74.344,132.760 75.948 M242.128 83.090 C 242.377 83.571,242.646 83.965,242.726 83.965 C 242.807 83.965,242.669 83.571,242.420 83.090 C 242.171 82.609,241.902 82.216,241.822 82.216 C 241.742 82.216,241.880 82.609,242.128 83.090 M40.643 87.026 C 40.643 89.592,40.688 90.602,40.742 89.272 C 40.796 87.941,40.796 85.842,40.741 84.607 C 40.687 83.372,40.642 84.461,40.643 87.026 M211.682 88.484 C 211.682 88.644,211.870 89.103,212.099 89.504 C 212.328 89.905,212.516 90.102,212.516 89.942 C 212.516 89.781,212.328 89.322,212.099 88.921 C 211.870 88.520,211.682 88.324,211.682 88.484 M200.203 94.311 C 200.469 94.870,200.739 95.276,200.803 95.213 C 200.936 95.080,200.051 93.294,199.851 93.294 C 199.778 93.294,199.936 93.752,200.203 94.311 M156.122 99.125 C 157.075 100.087,157.919 100.875,157.999 100.875 C 158.079 100.875,157.366 100.087,156.414 99.125 C 155.462 98.163,154.617 97.376,154.537 97.376 C 154.457 97.376,155.170 98.163,156.122 99.125 M66.764 99.800 C 66.764 99.850,67.190 100.276,67.711 100.747 L 68.659 101.603 67.803 100.656 C 67.004 99.773,66.764 99.574,66.764 99.800 M40.301 101.458 C 40.301 102.019,40.361 102.249,40.434 101.968 C 40.508 101.687,40.508 101.228,40.434 100.948 C 40.361 100.667,40.301 100.897,40.301 101.458 M26.822 102.915 L 12.391 103.069 26.895 103.138 C 36.416 103.183,41.399 103.107,41.399 102.915 C 41.399 102.755,41.367 102.655,41.327 102.693 C 41.286 102.730,34.759 102.831,26.822 102.915 M223.032 105.631 C 223.032 105.681,223.458 106.107,223.980 106.578 L 224.927 107.434 224.071 106.487 C 223.273 105.604,223.032 105.405,223.032 105.631 M147.376 108.455 C 148.328 109.417,149.173 110.204,149.253 110.204 C 149.333 110.204,148.620 109.417,147.668 108.455 C 146.716 107.493,145.871 106.706,145.791 106.706 C 145.711 106.706,146.424 107.493,147.376 108.455 M167.930 109.129 C 167.930 109.179,168.356 109.606,168.878 110.077 L 169.825 110.933 168.969 109.985 C 168.171 109.102,167.930 108.904,167.930 109.129 M227.259 110.204 C 227.886 110.845,228.464 111.370,228.544 111.370 C 228.624 111.370,228.177 110.845,227.551 110.204 C 226.925 109.563,226.347 109.038,226.267 109.038 C 226.186 109.038,226.633 109.563,227.259 110.204 M3.499 112.099 C 4.043 112.660,4.553 113.120,4.633 113.120 C 4.714 113.120,4.334 112.660,3.790 112.099 C 3.246 111.538,2.735 111.079,2.655 111.079 C 2.575 111.079,2.955 111.538,3.499 112.099 M172.595 113.557 C 173.628 114.599,174.539 115.452,174.619 115.452 C 174.699 115.452,173.919 114.599,172.886 113.557 C 171.853 112.515,170.943 111.662,170.862 111.662 C 170.782 111.662,171.562 112.515,172.595 113.557 M230.029 112.628 C 230.029 112.678,230.456 113.104,230.977 113.575 L 231.924 114.431 231.068 113.484 C 230.270 112.601,230.029 112.402,230.029 112.628 M214.286 115.015 C 214.830 115.576,215.340 116.035,215.421 116.035 C 215.501 116.035,215.121 115.576,214.577 115.015 C 214.033 114.453,213.523 113.994,213.442 113.994 C 213.362 113.994,213.742 114.453,214.286 115.015 M178.280 119.242 C 179.070 120.044,179.781 120.700,179.861 120.700 C 179.942 120.700,179.361 120.044,178.571 119.242 C 177.782 118.440,177.070 117.784,176.990 117.784 C 176.910 117.784,177.490 118.440,178.280 119.242 M159.184 118.459 C 159.184 118.509,159.610 118.935,160.131 119.406 L 161.079 120.262 160.222 119.315 C 159.424 118.432,159.184 118.233,159.184 118.459 M163.703 122.741 C 164.655 123.703,165.499 124.490,165.579 124.490 C 165.660 124.490,164.946 123.703,163.994 122.741 C 163.042 121.778,162.198 120.991,162.117 120.991 C 162.037 120.991,162.751 121.778,163.703 122.741 M77.551 122.303 C 77.952 122.532,78.411 122.720,78.571 122.720 C 78.732 122.720,78.535 122.532,78.134 122.303 C 77.733 122.074,77.274 121.887,77.114 121.887 C 76.953 121.887,77.150 122.074,77.551 122.303 M168.805 127.843 C 169.349 128.404,169.859 128.863,169.939 128.863 C 170.020 128.863,169.640 128.404,169.096 127.843 C 168.552 127.281,168.042 126.822,167.961 126.822 C 167.881 126.822,168.261 127.281,168.805 127.843 M224.271 131.404 C 224.712 131.471,225.434 131.471,225.875 131.404 C 226.316 131.337,225.955 131.283,225.073 131.283 C 224.191 131.283,223.830 131.337,224.271 131.404 M213.630 133.986 C 212.499 134.599,212.627 134.811,213.776 134.227 C 214.874 133.668,215.069 133.523,214.699 133.539 C 214.552 133.546,214.071 133.747,213.630 133.986 M242.566 138.867 C 242.566 138.917,242.992 139.343,243.513 139.814 L 244.461 140.671 243.604 139.723 C 242.806 138.840,242.566 138.642,242.566 138.867 M258.621 139.504 C 258.621 139.665,258.809 140.124,259.038 140.525 C 259.267 140.926,259.455 141.122,259.455 140.962 C 259.455 140.802,259.267 140.343,259.038 139.942 C 258.809 139.541,258.621 139.344,258.621 139.504 M221.512 149.344 C 221.662 152.100,221.778 152.373,221.822 150.073 C 221.846 148.830,221.767 147.813,221.647 147.813 C 221.527 147.813,221.466 148.502,221.512 149.344 M229.446 148.488 C 229.446 148.538,229.872 148.964,230.394 149.435 L 231.341 150.292 230.485 149.344 C 229.687 148.461,229.446 148.262,229.446 148.488 M262.493 154.810 C 262.493 156.173,262.543 156.731,262.604 156.050 C 262.666 155.368,262.666 154.253,262.604 153.571 C 262.543 152.890,262.493 153.448,262.493 154.810 M200.098 156.268 C 200.098 157.471,200.149 157.963,200.212 157.362 C 200.275 156.760,200.275 155.776,200.212 155.175 C 200.149 154.574,200.098 155.066,200.098 156.268 M216.035 156.122 C 216.579 156.684,217.090 157.143,217.170 157.143 C 217.250 157.143,216.870 156.684,216.327 156.122 C 215.783 155.561,215.272 155.102,215.192 155.102 C 215.112 155.102,215.491 155.561,216.035 156.122 M262.474 158.746 C 262.476 159.548,262.533 159.841,262.600 159.398 C 262.667 158.955,262.665 158.299,262.596 157.941 C 262.527 157.582,262.472 157.945,262.474 158.746 M185.523 160.496 C 185.524 161.778,185.575 162.267,185.637 161.581 C 185.698 160.895,185.697 159.846,185.635 159.249 C 185.572 158.652,185.522 159.213,185.523 160.496 M221.429 161.690 C 221.429 163.198,221.527 164.431,221.647 164.431 C 221.767 164.431,221.866 163.258,221.866 161.825 C 221.866 160.391,221.767 159.157,221.647 159.083 C 221.527 159.009,221.429 160.182,221.429 161.690 M215.091 159.681 C 215.454 159.751,215.978 159.749,216.257 159.676 C 216.536 159.603,216.239 159.546,215.598 159.549 C 214.956 159.552,214.728 159.612,215.091 159.681 M212.313 162.682 C 212.313 163.243,212.373 163.473,212.446 163.192 C 212.519 162.912,212.519 162.453,212.446 162.172 C 212.373 161.891,212.313 162.121,212.313 162.682 M246.793 167.930 C 246.544 168.411,246.406 168.805,246.486 168.805 C 246.567 168.805,246.836 168.411,247.085 167.930 C 247.333 167.449,247.471 167.055,247.391 167.055 C 247.311 167.055,247.042 167.449,246.793 167.930 M234.238 168.586 L 233.382 169.534 234.329 168.677 C 234.851 168.206,235.277 167.780,235.277 167.730 C 235.277 167.504,235.036 167.703,234.238 168.586 M243.606 172.526 C 242.745 173.526,242.551 173.847,243.122 173.324 C 243.987 172.531,245.364 170.840,245.136 170.849 C 245.085 170.851,244.397 171.606,243.606 172.526 M224.563 175.128 C 224.843 175.201,225.302 175.201,225.583 175.128 C 225.864 175.055,225.634 174.995,225.073 174.995 C 224.512 174.995,224.282 175.055,224.563 175.128 M396.198 178.499 C 396.913 179.260,397.536 179.883,397.583 179.883 C 397.801 179.883,397.570 179.622,396.283 178.413 L 394.898 177.114 396.198 178.499 M302.988 178.055 C 303.590 178.118,304.574 178.118,305.175 178.055 C 305.776 177.992,305.284 177.941,304.082 177.941 C 302.879 177.941,302.387 177.992,302.988 178.055 M252.897 181.414 L 252.041 182.362 252.988 181.505 C 253.872 180.707,254.070 180.466,253.845 180.466 C 253.794 180.466,253.368 180.893,252.897 181.414 M224.563 181.251 C 224.843 181.324,225.302 181.324,225.583 181.251 C 225.864 181.177,225.634 181.117,225.073 181.117 C 224.512 181.117,224.282 181.177,224.563 181.251 M249.839 184.475 L 248.834 185.569 249.927 184.564 C 250.945 183.629,251.154 183.382,250.932 183.382 C 250.883 183.382,250.391 183.874,249.839 184.475 M330.981 183.883 C 331.424 183.950,332.080 183.948,332.438 183.879 C 332.797 183.809,332.434 183.755,331.633 183.757 C 330.831 183.759,330.538 183.816,330.981 183.883 M341.623 183.885 C 342.147 183.950,342.934 183.948,343.373 183.882 C 343.811 183.815,343.382 183.762,342.420 183.764 C 341.458 183.765,341.099 183.820,341.623 183.885 M363.901 187.682 C 368.179 187.727,375.263 187.727,379.644 187.682 C 384.025 187.637,380.525 187.600,371.866 187.599 C 363.207 187.599,359.623 187.637,363.901 187.682 M302.114 190.885 C 302.875 190.945,304.122 190.945,304.883 190.885 C 305.645 190.825,305.022 190.776,303.499 190.776 C 301.975 190.776,301.352 190.825,302.114 190.885 M221.064 193.787 C 221.345 193.860,221.804 193.860,222.085 193.787 C 222.365 193.714,222.136 193.654,221.574 193.654 C 221.013 193.654,220.784 193.714,221.064 193.787 M287.410 194.471 C 286.819 194.783,286.258 195.163,286.164 195.316 C 286.069 195.469,286.586 195.262,287.311 194.856 C 288.036 194.451,288.630 194.065,288.630 193.998 C 288.630 193.829,288.609 193.837,287.410 194.471 M328.061 196.411 C 328.342 196.484,328.801 196.484,329.082 196.411 C 329.362 196.338,329.133 196.278,328.571 196.278 C 328.010 196.278,327.781 196.338,328.061 196.411 M337.099 196.720 L 343.440 196.804 343.440 218.360 L 343.440 239.915 341.472 240.017 L 339.504 240.119 341.618 240.176 L 343.732 240.233 343.732 218.367 L 343.732 196.501 337.245 196.568 L 330.758 196.635 337.099 196.720 M227.627 205.162 C 227.990 205.232,228.515 205.230,228.793 205.157 C 229.072 205.084,228.776 205.027,228.134 205.030 C 227.493 205.033,227.265 205.093,227.627 205.162 M135.350 206.615 C 135.630 206.688,136.090 206.688,136.370 206.615 C 136.651 206.542,136.421 206.482,135.860 206.482 C 135.299 206.482,135.069 206.542,135.350 206.615 M140.889 206.615 C 141.170 206.688,141.629 206.688,141.910 206.615 C 142.190 206.542,141.961 206.482,141.399 206.482 C 140.838 206.482,140.609 206.542,140.889 206.615 M119.078 213.484 L 118.222 214.431 119.169 213.575 C 120.052 212.777,120.251 212.536,120.025 212.536 C 119.975 212.536,119.549 212.963,119.078 213.484 M193.862 215.671 L 192.857 216.764 193.950 215.759 C 194.552 215.207,195.044 214.715,195.044 214.666 C 195.044 214.443,194.797 214.653,193.862 215.671 M231.570 217.708 C 232.498 217.767,233.941 217.766,234.777 217.707 C 235.613 217.649,234.854 217.601,233.090 217.602 C 231.327 217.602,230.643 217.650,231.570 217.708 M226.312 217.985 C 226.593 218.059,227.052 218.059,227.332 217.985 C 227.613 217.912,227.383 217.852,226.822 217.852 C 226.261 217.852,226.031 217.912,226.312 217.985 M115.542 221.720 C 115.544 222.682,115.598 223.041,115.663 222.517 C 115.728 221.993,115.727 221.205,115.660 220.767 C 115.594 220.329,115.541 220.758,115.542 221.720 M299.347 222.072 C 299.710 222.142,300.235 222.139,300.514 222.066 C 300.792 221.993,300.496 221.936,299.854 221.939 C 299.213 221.943,298.985 222.002,299.347 222.072 M203.043 224.563 L 202.187 225.510 203.134 224.654 C 203.655 224.183,204.082 223.757,204.082 223.706 C 204.082 223.481,203.841 223.679,203.043 224.563 M237.099 235.478 C 237.380 235.551,237.839 235.551,238.120 235.478 C 238.400 235.405,238.171 235.345,237.609 235.345 C 237.048 235.345,236.819 235.405,237.099 235.478 M233.892 235.769 C 234.173 235.843,234.632 235.843,234.913 235.769 C 235.193 235.696,234.964 235.636,234.402 235.636 C 233.841 235.636,233.612 235.696,233.892 235.769 M229.956 236.066 C 230.317 236.135,230.907 236.135,231.268 236.066 C 231.629 235.996,231.334 235.939,230.612 235.939 C 229.891 235.939,229.595 235.996,229.956 236.066 M336.079 240.439 C 336.440 240.508,337.030 240.508,337.391 240.439 C 337.751 240.369,337.456 240.313,336.735 240.313 C 336.013 240.313,335.718 240.369,336.079 240.439 M233.017 248.597 C 233.298 248.671,233.757 248.671,234.038 248.597 C 234.319 248.524,234.089 248.464,233.528 248.464 C 232.966 248.464,232.737 248.524,233.017 248.597 M229.810 248.889 C 230.091 248.962,230.550 248.962,230.831 248.889 C 231.112 248.816,230.882 248.756,230.321 248.756 C 229.759 248.756,229.530 248.816,229.810 248.889 M217.566 250.055 C 217.846 250.129,218.305 250.129,218.586 250.055 C 218.867 249.982,218.637 249.922,218.076 249.922 C 217.515 249.922,217.285 249.982,217.566 250.055 M157.459 250.838 C 157.759 251.106,159.475 251.895,159.475 251.764 C 159.475 251.596,157.859 250.729,157.546 250.729 C 157.431 250.729,157.392 250.778,157.459 250.838 M341.606 252.981 L 343.416 253.087 343.521 255.262 L 343.625 257.436 343.606 255.176 L 343.586 252.915 341.691 252.896 L 339.796 252.876 341.606 252.981 M336.374 253.267 C 336.736 253.337,337.261 253.335,337.540 253.262 C 337.819 253.189,337.522 253.132,336.880 253.135 C 336.239 253.138,336.011 253.198,336.374 253.267 M363.901 256.195 C 368.179 256.241,375.263 256.241,379.644 256.195 C 384.025 256.150,380.525 256.113,371.866 256.113 C 363.207 256.113,359.623 256.150,363.901 256.195 M363.505 269.023 C 368.206 269.068,375.816 269.068,380.414 269.023 C 385.013 268.978,381.166 268.941,371.866 268.941 C 362.566 268.941,358.803 268.978,363.505 269.023 M226.822 270.700 C 227.223 270.929,227.682 271.116,227.843 271.116 C 228.003 271.116,227.806 270.929,227.405 270.700 C 227.004 270.471,226.545 270.283,226.385 270.283 C 226.224 270.283,226.421 270.471,226.822 270.700 M249.498 278.931 C 250.183 278.993,251.233 278.992,251.830 278.929 C 252.427 278.866,251.866 278.816,250.583 278.817 C 249.300 278.818,248.812 278.869,249.498 278.931 " stroke="none" fill="#1c2126" fillRule="evenodd"></path><path id="path3" d="M19.898 9.548 C 24.348 9.593,31.629 9.593,36.079 9.548 C 40.528 9.503,36.888 9.466,27.988 9.466 C 19.089 9.466,15.448 9.503,19.898 9.548 M161.079 20.408 C 162.031 21.370,162.875 22.157,162.956 22.157 C 163.036 22.157,162.322 21.370,161.370 20.408 C 160.418 19.446,159.574 18.659,159.493 18.659 C 159.413 18.659,160.127 19.446,161.079 20.408 M60.572 19.740 C 60.935 19.809,61.459 19.807,61.738 19.734 C 62.017 19.661,61.720 19.604,61.079 19.607 C 60.437 19.610,60.209 19.670,60.572 19.740 M83.455 19.734 C 83.735 19.808,84.195 19.808,84.475 19.734 C 84.756 19.661,84.526 19.601,83.965 19.601 C 83.404 19.601,83.174 19.661,83.455 19.734 M70.351 20.043 C 72.084 20.094,74.839 20.094,76.474 20.042 C 78.108 19.990,76.691 19.948,73.324 19.948 C 69.956 19.949,68.619 19.991,70.351 20.043 M215.160 20.208 C 215.160 20.258,215.587 20.684,216.108 21.155 L 217.055 22.012 216.199 21.064 C 215.401 20.181,215.160 19.983,215.160 20.208 M41.510 27.114 C 41.510 28.958,41.557 29.712,41.615 28.790 C 41.673 27.868,41.673 26.359,41.615 25.437 C 41.557 24.515,41.510 25.270,41.510 27.114 M56.633 31.979 C 56.913 32.053,57.372 32.053,57.653 31.979 C 57.934 31.906,57.704 31.846,57.143 31.846 C 56.582 31.846,56.352 31.906,56.633 31.979 M62.318 32.276 C 62.679 32.345,63.269 32.345,63.630 32.276 C 63.991 32.206,63.695 32.149,62.974 32.149 C 62.252 32.149,61.957 32.206,62.318 32.276 M81.997 32.271 C 82.278 32.344,82.737 32.344,83.017 32.271 C 83.298 32.198,83.069 32.138,82.507 32.138 C 81.946 32.138,81.716 32.198,81.997 32.271 M145.289 75.948 C 145.291 77.230,145.342 77.719,145.403 77.033 C 145.465 76.347,145.464 75.298,145.401 74.701 C 145.339 74.104,145.288 74.665,145.289 75.948 M40.642 96.210 C 40.642 98.695,40.687 99.712,40.741 98.469 C 40.796 97.227,40.796 95.193,40.741 93.950 C 40.687 92.708,40.642 93.724,40.642 96.210 M155.977 99.271 C 156.521 99.832,157.031 100.292,157.111 100.292 C 157.192 100.292,156.812 99.832,156.268 99.271 C 155.724 98.710,155.214 98.251,155.133 98.251 C 155.053 98.251,155.433 98.710,155.977 99.271 M52.462 111.880 L 51.458 112.974 52.551 111.969 C 53.569 111.034,53.778 110.787,53.556 110.787 C 53.507 110.787,53.015 111.279,52.462 111.880 M43.367 115.658 C 43.728 115.727,44.319 115.727,44.679 115.658 C 45.040 115.588,44.745 115.531,44.023 115.531 C 43.302 115.531,43.007 115.588,43.367 115.658 M175.802 116.764 C 176.346 117.325,176.856 117.784,176.937 117.784 C 177.017 117.784,176.637 117.325,176.093 116.764 C 175.549 116.203,175.039 115.743,174.959 115.743 C 174.878 115.743,175.258 116.203,175.802 116.764 M217.660 118.395 C 218.129 118.971,218.572 119.393,218.644 119.333 C 218.716 119.273,218.332 118.801,217.790 118.285 L 216.806 117.347 217.660 118.395 M166.618 125.364 C 168.376 127.128,169.881 128.571,169.961 128.571 C 170.041 128.571,168.668 127.128,166.910 125.364 C 165.151 123.601,163.647 122.157,163.567 122.157 C 163.487 122.157,164.860 123.601,166.618 125.364 M259.271 124.781 C 259.271 125.663,259.326 126.024,259.392 125.583 C 259.459 125.142,259.459 124.421,259.392 123.980 C 259.326 123.539,259.271 123.899,259.271 124.781 M198.251 129.883 C 197.543 130.605,197.029 131.195,197.109 131.195 C 197.189 131.195,197.834 130.605,198.542 129.883 C 199.250 129.162,199.764 128.571,199.684 128.571 C 199.604 128.571,198.959 129.162,198.251 129.883 M228.037 150.930 C 228.010 152.725,228.087 154.254,228.207 154.329 C 228.327 154.404,228.390 153.395,228.347 152.087 C 228.212 148.000,228.088 147.537,228.037 150.930 M249.922 155.102 C 249.922 155.663,249.982 155.893,250.055 155.612 C 250.129 155.332,250.129 154.872,250.055 154.592 C 249.982 154.311,249.922 154.541,249.922 155.102 M249.922 157.434 C 249.922 157.996,249.982 158.225,250.055 157.945 C 250.129 157.664,250.129 157.205,250.055 156.924 C 249.982 156.644,249.922 156.873,249.922 157.434 M185.798 160.496 C 185.800 161.297,185.856 161.591,185.923 161.148 C 185.991 160.704,185.989 160.048,185.920 159.690 C 185.850 159.331,185.795 159.694,185.798 160.496 M228.028 162.901 C 228.006 164.063,228.087 165.015,228.207 165.015 C 228.327 165.015,228.388 164.326,228.341 163.484 C 228.200 160.918,228.070 160.675,228.028 162.901 M234.095 168.440 L 233.090 169.534 234.184 168.529 C 235.201 167.594,235.411 167.347,235.188 167.347 C 235.140 167.347,234.648 167.839,234.095 168.440 M242.550 173.980 L 241.545 175.073 242.638 174.068 C 243.656 173.133,243.866 172.886,243.643 172.886 C 243.594 172.886,243.102 173.378,242.550 173.980 M347.358 178.790 L 346.501 179.738 347.449 178.881 C 348.332 178.083,348.531 177.843,348.305 177.843 C 348.255 177.843,347.829 178.269,347.358 178.790 M181.268 181.255 C 181.629 181.325,182.219 181.325,182.580 181.255 C 182.941 181.186,182.646 181.129,181.924 181.129 C 181.203 181.129,180.907 181.186,181.268 181.255 M222.379 181.256 C 222.742 181.325,223.267 181.323,223.546 181.250 C 223.824 181.177,223.528 181.120,222.886 181.123 C 222.245 181.126,222.017 181.186,222.379 181.256 M226.461 181.256 C 226.824 181.325,227.349 181.323,227.627 181.250 C 227.906 181.177,227.609 181.120,226.968 181.123 C 226.327 181.126,226.098 181.186,226.461 181.256 M334.329 184.182 C 335.652 184.236,337.817 184.236,339.140 184.182 C 340.463 184.128,339.380 184.084,336.735 184.084 C 334.089 184.084,333.007 184.128,334.329 184.182 M387.605 221.720 C 387.605 240.641,387.640 248.339,387.682 238.826 C 387.725 229.313,387.725 213.832,387.682 204.424 C 387.639 195.015,387.605 202.799,387.605 221.720 M224.275 193.795 C 224.718 193.862,225.374 193.860,225.733 193.791 C 226.091 193.722,225.729 193.667,224.927 193.669 C 224.125 193.672,223.832 193.728,224.275 193.795 M230.394 205.169 C 230.995 205.232,231.979 205.232,232.580 205.169 C 233.181 205.106,232.690 205.054,231.487 205.054 C 230.284 205.054,229.792 205.106,230.394 205.169 M138.269 206.623 C 138.712 206.690,139.368 206.688,139.727 206.619 C 140.086 206.550,139.723 206.495,138.921 206.497 C 138.120 206.500,137.826 206.556,138.269 206.623 M119.369 213.484 L 118.513 214.431 119.461 213.575 C 120.344 212.777,120.542 212.536,120.317 212.536 C 120.267 212.536,119.840 212.963,119.369 213.484 M228.353 217.694 C 228.633 217.767,229.093 217.767,229.373 217.694 C 229.654 217.620,229.424 217.560,228.863 217.560 C 228.302 217.560,228.072 217.620,228.353 217.694 M138.411 219.156 C 138.772 219.226,139.362 219.226,139.723 219.156 C 140.084 219.087,139.789 219.030,139.067 219.030 C 138.345 219.030,138.050 219.087,138.411 219.156 M216.691 237.519 C 216.972 237.592,217.431 237.592,217.711 237.519 C 217.992 237.445,217.762 237.385,217.201 237.385 C 216.640 237.385,216.410 237.445,216.691 237.519 M340.160 240.447 C 340.842 240.508,341.957 240.508,342.638 240.447 C 343.320 240.385,342.762 240.335,341.399 240.335 C 340.036 240.335,339.479 240.385,340.160 240.447 M363.650 256.487 C 367.790 256.532,374.481 256.532,378.519 256.487 C 382.557 256.441,379.169 256.404,370.991 256.404 C 362.813 256.404,359.510 256.441,363.650 256.487 " stroke="none" fill="#747474" fillRule="evenodd"></path><path id="path4" d="M41.224 43.732 C 41.224 46.057,41.269 47.008,41.324 45.845 C 41.380 44.683,41.380 42.781,41.324 41.618 C 41.269 40.456,41.224 41.407,41.224 43.732 M40.932 69.679 C 40.932 72.004,40.977 72.956,41.033 71.793 C 41.088 70.630,41.088 68.728,41.033 67.566 C 40.977 66.403,40.932 67.354,40.932 69.679 M19.044 115.670 C 23.505 115.716,30.721 115.716,35.079 115.670 C 39.437 115.625,35.787 115.588,26.968 115.588 C 18.149 115.588,14.583 115.625,19.044 115.670 M213.332 237.528 C 213.849 237.593,214.768 237.594,215.373 237.531 C 215.977 237.467,215.554 237.415,214.431 237.413 C 213.309 237.412,212.814 237.464,213.332 237.528 M213.056 250.070 C 213.904 250.129,215.216 250.128,215.972 250.068 C 216.728 250.008,216.035 249.960,214.431 249.961 C 212.828 249.961,212.209 250.010,213.056 250.070 " stroke="none" fill="#7d7c7c" fillRule="evenodd"></path></g></svg>