<svg width="31" height="30" viewBox="0 0 31 30" fill="none" xmlns="http://www.w3.org/2000/svg">
  <path d="M29.9083 13.6086L27.2715 10.5802L27.6401 6.57076C27.711 5.85987 27.229 5.20585 26.5485 5.04945L22.6359 4.16795L20.5945 0.698796C20.2259 0.0874291 19.4746 -0.168492 18.8083 0.115865L15.1367 1.69404L11.465 0.115865C10.8129 -0.168492 10.0474 0.0874291 9.69299 0.698796L7.63744 4.15373L3.73898 5.03523C3.04434 5.19163 2.56235 5.83143 2.63323 6.54232L3.00182 10.566L0.350862 13.6086C-0.116954 14.1489 -0.116954 14.9451 0.350862 15.4853L3.00182 18.5137L2.63323 22.5374C2.56235 23.2483 3.04434 23.9023 3.7248 24.0587L7.63744 24.9544L9.67882 28.4093C10.0474 29.0207 10.8129 29.2766 11.465 28.9923L15.1367 27.3857L18.8083 28.9638C19.4604 29.2482 20.2259 28.9923 20.5803 28.3809L22.6217 24.926L26.5343 24.0303C27.229 23.8739 27.6968 23.2198 27.6259 22.5089L27.2573 18.4995L29.8941 15.4711C30.1252 15.2171 30.2545 14.8864 30.2571 14.5426C30.2597 14.1987 30.1355 13.8661 29.9083 13.6086ZM12.6275 18.5706L9.62211 15.5564C9.49087 15.4248 9.38676 15.2685 9.31573 15.0965C9.2447 14.9246 9.20814 14.7402 9.20814 14.5541C9.20814 14.3679 9.2447 14.1836 9.31573 14.0116C9.38676 13.8396 9.49087 13.6833 9.62211 13.5517C9.75336 13.4201 9.90917 13.3157 10.0807 13.2444C10.2521 13.1732 10.4359 13.1365 10.6215 13.1365C10.8071 13.1365 10.9909 13.1732 11.1624 13.2444C11.3339 13.3157 11.4897 13.4201 11.621 13.5517L13.6198 15.5564L18.6382 10.5233C18.7694 10.3917 18.9252 10.2873 19.0967 10.216C19.2682 10.1448 19.452 10.1081 19.6376 10.1081C19.8232 10.1081 20.007 10.1448 20.1785 10.216C20.35 10.2873 20.5058 10.3917 20.637 10.5233C20.7683 10.6549 20.8724 10.8112 20.9434 10.9832C21.0145 11.1552 21.051 11.3395 21.051 11.5257C21.051 11.7118 21.0145 11.8962 20.9434 12.0681C20.8724 12.2401 20.7683 12.3964 20.637 12.528L14.6263 18.5564C14.0876 19.1251 13.1803 19.1251 12.6275 18.5706Z" fill="#000"/>
</svg>